<svg width="248" height="86" viewBox="0 0 248 86" fill="#fff" xmlns="http://www.w3.org/2000/svg">
<rect x="0.75" y="0.75" width="246.505" height="84.5" rx="13.25" stroke="black" stroke-width="1.5"/>
<path d="M53.8068 35.7649C53.5396 35.9696 48.8222 38.595 48.8222 44.4326C48.8222 51.1848 54.8249 53.5736 55.0046 53.6327C54.977 53.7783 54.051 56.9042 51.8397 60.0892C49.8679 62.892 47.8087 65.6902 44.676 65.6902C41.5433 65.6902 40.7371 63.893 37.1207 63.893C33.5964 63.893 32.3434 65.7494 29.4779 65.7494C26.6124 65.7494 24.613 63.1559 22.3142 59.9709C19.6514 56.2308 17.5 50.4204 17.5 44.9058C17.5 36.0606 23.3231 31.3696 29.0541 31.3696C32.0992 31.3696 34.6376 33.3443 36.5494 33.3443C38.3692 33.3443 41.207 31.2513 44.6714 31.2513C45.9843 31.2513 50.7018 31.3696 53.8068 35.7649ZM43.0267 27.5066C44.4595 25.8277 45.473 23.4981 45.473 21.1685C45.473 20.8454 45.4453 20.5178 45.3854 20.2539C43.0544 20.3404 40.281 21.7873 38.6087 23.7028C37.2958 25.177 36.0703 27.5066 36.0703 29.8681C36.0703 30.223 36.1302 30.5779 36.1579 30.6916C36.3053 30.7189 36.5448 30.7508 36.7844 30.7508C38.8759 30.7508 41.5064 29.3676 43.0267 27.5066Z" fill="black"/>
<path d="M69.3542 29.5C69.2333 29.5 69.1306 29.4577 69.0459 29.3731C68.9613 29.2884 68.919 29.1856 68.919 29.0647V17.2585C68.919 17.1255 68.9613 17.0167 69.0459 16.932C69.1306 16.8474 69.2333 16.8051 69.3542 16.8051H73.7793C75.0004 16.8051 76.0039 16.9925 76.7898 17.3673C77.5878 17.7421 78.1863 18.2983 78.5852 19.0358C78.9963 19.7733 79.2079 20.674 79.22 21.738C79.2442 22.2699 79.2563 22.7415 79.2563 23.1525C79.2563 23.5636 79.2442 24.0291 79.22 24.549C79.1958 25.6734 78.9903 26.6044 78.6034 27.3419C78.2165 28.0673 77.6301 28.6114 76.8442 28.9741C76.0704 29.3247 75.079 29.5 73.87 29.5H69.3542ZM71.4398 27.4144H73.7793C74.4564 27.4144 75.0065 27.3177 75.4296 27.1242C75.8528 26.9308 76.1611 26.6225 76.3546 26.1993C76.5601 25.7641 76.6689 25.1958 76.681 24.4946C76.6931 24.1319 76.6991 23.8175 76.6991 23.5515C76.7112 23.2734 76.7112 23.0014 76.6991 22.7354C76.6991 22.4573 76.6931 22.143 76.681 21.7924C76.6568 20.801 76.409 20.0695 75.9374 19.598C75.4659 19.1264 74.7163 18.8907 73.6886 18.8907H71.4398V27.4144ZM85.6241 29.6814C84.6569 29.6814 83.8408 29.5121 83.1758 29.1736C82.5229 28.835 82.0212 28.3575 81.6706 27.7408C81.332 27.1242 81.1386 26.4049 81.0902 25.5827C81.0781 25.3651 81.0721 25.0991 81.0721 24.7847C81.0721 24.4704 81.0781 24.2044 81.0902 23.9868C81.1386 23.1525 81.3381 22.4332 81.6887 21.8286C82.0514 21.212 82.5592 20.7345 83.2121 20.3959C83.8771 20.0574 84.6811 19.8881 85.6241 19.8881C86.5672 19.8881 87.3651 20.0574 88.018 20.3959C88.683 20.7345 89.1908 21.212 89.5414 21.8286C89.9041 22.4332 90.1096 23.1525 90.158 23.9868C90.1701 24.2044 90.1761 24.4704 90.1761 24.7847C90.1761 25.0991 90.1701 25.3651 90.158 25.5827C90.1096 26.4049 89.9102 27.1242 89.5595 27.7408C89.221 28.3575 88.7193 28.835 88.0543 29.1736C87.4014 29.5121 86.5913 29.6814 85.6241 29.6814ZM85.6241 27.8859C86.2649 27.8859 86.7606 27.6864 87.1112 27.2875C87.4619 26.8764 87.6553 26.2779 87.6916 25.492C87.7037 25.3107 87.7097 25.0749 87.7097 24.7847C87.7097 24.4946 87.7037 24.2588 87.6916 24.0775C87.6553 23.3037 87.4619 22.7112 87.1112 22.3002C86.7606 21.8891 86.2649 21.6836 85.6241 21.6836C84.9833 21.6836 84.4876 21.8891 84.137 22.3002C83.7864 22.7112 83.5929 23.3037 83.5567 24.0775C83.5446 24.2588 83.5385 24.4946 83.5385 24.7847C83.5385 25.0749 83.5446 25.3107 83.5567 25.492C83.5929 26.2779 83.7864 26.8764 84.137 27.2875C84.4876 27.6864 84.9833 27.8859 85.6241 27.8859ZM94.4951 29.5C94.3258 29.5 94.1989 29.4577 94.1143 29.3731C94.0296 29.2884 93.9571 29.1796 93.8966 29.0466L91.3032 20.6317C91.2912 20.5712 91.2851 20.5168 91.2851 20.4685C91.2851 20.3597 91.3214 20.269 91.3939 20.1964C91.4786 20.1118 91.5692 20.0695 91.666 20.0695H93.008C93.1531 20.0695 93.2679 20.1118 93.3526 20.1964C93.4372 20.269 93.4856 20.3415 93.4976 20.4141L95.2749 26.417L97.161 20.4685C97.1852 20.3838 97.2396 20.2992 97.3243 20.2146C97.4089 20.1179 97.5358 20.0695 97.7051 20.0695H98.6119C98.7812 20.0695 98.9081 20.1179 98.9927 20.2146C99.0774 20.2992 99.1318 20.3838 99.156 20.4685L101.042 26.417L102.819 20.4141C102.831 20.3415 102.874 20.269 102.946 20.1964C103.031 20.1118 103.146 20.0695 103.291 20.0695H104.633C104.742 20.0695 104.832 20.1118 104.905 20.1964C104.99 20.269 105.032 20.3597 105.032 20.4685C105.032 20.5168 105.02 20.5712 104.996 20.6317L102.402 29.0466C102.366 29.1796 102.299 29.2884 102.203 29.3731C102.118 29.4577 101.991 29.5 101.822 29.5H100.643C100.474 29.5 100.341 29.4577 100.244 29.3731C100.147 29.2884 100.081 29.1796 100.045 29.0466L98.1585 23.3158L96.2724 29.0466C96.224 29.1796 96.1515 29.2884 96.0548 29.3731C95.9701 29.4577 95.8371 29.5 95.6558 29.5H94.4951ZM107.232 29.5C107.111 29.5 107.008 29.4577 106.924 29.3731C106.839 29.2884 106.797 29.1856 106.797 29.0647V20.5047C106.797 20.3838 106.839 20.2811 106.924 20.1964C107.008 20.1118 107.111 20.0695 107.232 20.0695H108.719C108.84 20.0695 108.943 20.1118 109.027 20.1964C109.112 20.2811 109.154 20.3838 109.154 20.5047V21.2483C109.469 20.8614 109.868 20.541 110.351 20.2871C110.847 20.0211 111.458 19.8881 112.183 19.8881C112.92 19.8881 113.561 20.0574 114.105 20.3959C114.649 20.7224 115.067 21.1879 115.357 21.7924C115.659 22.3969 115.81 23.1223 115.81 23.9686V29.0647C115.81 29.1856 115.768 29.2884 115.683 29.3731C115.599 29.4577 115.496 29.5 115.375 29.5H113.779C113.658 29.5 113.555 29.4577 113.471 29.3731C113.386 29.2884 113.344 29.1856 113.344 29.0647V24.0775C113.344 23.3762 113.168 22.8261 112.818 22.4271C112.479 22.0281 111.983 21.8286 111.331 21.8286C110.702 21.8286 110.2 22.0281 109.825 22.4271C109.451 22.8261 109.263 23.3762 109.263 24.0775V29.0647C109.263 29.1856 109.221 29.2884 109.136 29.3731C109.052 29.4577 108.949 29.5 108.828 29.5H107.232ZM118.567 29.5C118.446 29.5 118.343 29.4577 118.259 29.3731C118.174 29.2884 118.132 29.1856 118.132 29.0647V17.059C118.132 16.9381 118.174 16.8353 118.259 16.7507C118.343 16.666 118.446 16.6237 118.567 16.6237H120.072C120.193 16.6237 120.296 16.666 120.381 16.7507C120.465 16.8353 120.508 16.9381 120.508 17.059V29.0647C120.508 29.1856 120.465 29.2884 120.381 29.3731C120.296 29.4577 120.193 29.5 120.072 29.5H118.567ZM127.084 29.6814C126.117 29.6814 125.301 29.5121 124.636 29.1736C123.983 28.835 123.482 28.3575 123.131 27.7408C122.792 27.1242 122.599 26.4049 122.551 25.5827C122.538 25.3651 122.532 25.0991 122.532 24.7847C122.532 24.4704 122.538 24.2044 122.551 23.9868C122.599 23.1525 122.798 22.4332 123.149 21.8286C123.512 21.212 124.02 20.7345 124.672 20.3959C125.337 20.0574 126.141 19.8881 127.084 19.8881C128.028 19.8881 128.825 20.0574 129.478 20.3959C130.143 20.7345 130.651 21.212 131.002 21.8286C131.364 22.4332 131.57 23.1525 131.618 23.9868C131.63 24.2044 131.637 24.4704 131.637 24.7847C131.637 25.0991 131.63 25.3651 131.618 25.5827C131.57 26.4049 131.371 27.1242 131.02 27.7408C130.681 28.3575 130.18 28.835 129.515 29.1736C128.862 29.5121 128.052 29.6814 127.084 29.6814ZM127.084 27.8859C127.725 27.8859 128.221 27.6864 128.572 27.2875C128.922 26.8764 129.116 26.2779 129.152 25.492C129.164 25.3107 129.17 25.0749 129.17 24.7847C129.17 24.4946 129.164 24.2588 129.152 24.0775C129.116 23.3037 128.922 22.7112 128.572 22.3002C128.221 21.8891 127.725 21.6836 127.084 21.6836C126.444 21.6836 125.948 21.8891 125.597 22.3002C125.247 22.7112 125.053 23.3037 125.017 24.0775C125.005 24.2588 124.999 24.4946 124.999 24.7847C124.999 25.0749 125.005 25.3107 125.017 25.492C125.053 26.2779 125.247 26.8764 125.597 27.2875C125.948 27.6864 126.444 27.8859 127.084 27.8859ZM136.384 29.6814C135.756 29.6814 135.187 29.5605 134.68 29.3186C134.172 29.0647 133.767 28.7323 133.465 28.3212C133.174 27.898 133.029 27.4265 133.029 26.9066C133.029 26.0603 133.368 25.3893 134.045 24.8936C134.734 24.3858 135.641 24.0472 136.765 23.878L139.25 23.5153V23.1344C139.25 22.6266 139.123 22.2337 138.869 21.9556C138.615 21.6775 138.18 21.5385 137.563 21.5385C137.128 21.5385 136.771 21.6292 136.493 21.8105C136.227 21.9798 136.028 22.2095 135.895 22.4997C135.798 22.6568 135.659 22.7354 135.478 22.7354H134.045C133.912 22.7354 133.809 22.6992 133.737 22.6266C133.676 22.5541 133.646 22.4573 133.646 22.3364C133.658 22.143 133.737 21.9072 133.882 21.6292C134.027 21.3511 134.256 21.0851 134.571 20.8312C134.885 20.5652 135.29 20.3415 135.786 20.1602C136.282 19.9788 136.88 19.8881 137.581 19.8881C138.343 19.8881 138.984 19.9849 139.504 20.1783C140.036 20.3597 140.459 20.6075 140.773 20.9219C141.088 21.2362 141.317 21.605 141.462 22.0281C141.607 22.4513 141.68 22.8986 141.68 23.3702V29.0647C141.68 29.1856 141.638 29.2884 141.553 29.3731C141.468 29.4577 141.366 29.5 141.245 29.5H139.776C139.643 29.5 139.534 29.4577 139.449 29.3731C139.377 29.2884 139.34 29.1856 139.34 29.0647V28.3575C139.183 28.5872 138.972 28.8048 138.706 29.0103C138.44 29.2038 138.113 29.367 137.726 29.5C137.352 29.6209 136.904 29.6814 136.384 29.6814ZM137.001 27.9585C137.424 27.9585 137.805 27.8678 138.143 27.6864C138.494 27.5051 138.766 27.227 138.96 26.8522C139.165 26.4653 139.268 25.9817 139.268 25.4014V25.0205L137.454 25.3107C136.741 25.4195 136.209 25.5948 135.858 25.8366C135.508 26.0784 135.332 26.3746 135.332 26.7253C135.332 26.9912 135.411 27.221 135.568 27.4144C135.738 27.5958 135.949 27.7348 136.203 27.8315C136.457 27.9162 136.723 27.9585 137.001 27.9585ZM147.507 29.6814C146.878 29.6814 146.322 29.5786 145.838 29.3731C145.367 29.1554 144.974 28.8532 144.659 28.4663C144.345 28.0794 144.103 27.626 143.934 27.1061C143.765 26.5741 143.668 25.9938 143.644 25.3651C143.632 25.1475 143.626 24.954 143.626 24.7847C143.626 24.6034 143.632 24.4039 143.644 24.1863C143.668 23.5818 143.759 23.0196 143.916 22.4997C144.085 21.9798 144.327 21.5264 144.641 21.1395C144.968 20.7405 145.367 20.4322 145.838 20.2146C146.322 19.997 146.878 19.8881 147.507 19.8881C148.16 19.8881 148.71 20.003 149.157 20.2327C149.616 20.4503 149.997 20.7345 150.3 21.0851V17.059C150.3 16.9381 150.336 16.8353 150.408 16.7507C150.493 16.666 150.602 16.6237 150.735 16.6237H152.276C152.397 16.6237 152.5 16.666 152.585 16.7507C152.669 16.8353 152.712 16.9381 152.712 17.059V29.0647C152.712 29.1856 152.669 29.2884 152.585 29.3731C152.5 29.4577 152.397 29.5 152.276 29.5H150.844C150.711 29.5 150.602 29.4577 150.517 29.3731C150.445 29.2884 150.408 29.1856 150.408 29.0647V28.3937C150.106 28.7685 149.719 29.0768 149.248 29.3186C148.788 29.5605 148.208 29.6814 147.507 29.6814ZM148.178 27.7408C148.686 27.7408 149.091 27.626 149.393 27.3963C149.695 27.1666 149.919 26.8764 150.064 26.5258C150.209 26.1631 150.287 25.7943 150.3 25.4195C150.312 25.2019 150.318 24.9721 150.318 24.7303C150.318 24.4764 150.312 24.2407 150.3 24.0231C150.287 23.6603 150.203 23.3158 150.046 22.9893C149.889 22.6508 149.659 22.3727 149.357 22.1551C149.054 21.9375 148.661 21.8286 148.178 21.8286C147.67 21.8286 147.265 21.9435 146.963 22.1732C146.672 22.3909 146.461 22.681 146.328 23.0437C146.195 23.4064 146.116 23.8054 146.092 24.2407C146.08 24.6034 146.08 24.9661 146.092 25.3288C146.116 25.7641 146.195 26.1631 146.328 26.5258C146.461 26.8885 146.672 27.1847 146.963 27.4144C147.265 27.632 147.67 27.7408 148.178 27.7408ZM163.444 29.6814C162.477 29.6814 161.661 29.5121 160.996 29.1736C160.343 28.835 159.841 28.3575 159.491 27.7408C159.152 27.1242 158.959 26.4049 158.91 25.5827C158.898 25.3651 158.892 25.0991 158.892 24.7847C158.892 24.4704 158.898 24.2044 158.91 23.9868C158.959 23.1525 159.158 22.4332 159.509 21.8286C159.871 21.212 160.379 20.7345 161.032 20.3959C161.697 20.0574 162.501 19.8881 163.444 19.8881C164.387 19.8881 165.185 20.0574 165.838 20.3959C166.503 20.7345 167.011 21.212 167.361 21.8286C167.724 22.4332 167.93 23.1525 167.978 23.9868C167.99 24.2044 167.996 24.4704 167.996 24.7847C167.996 25.0991 167.99 25.3651 167.978 25.5827C167.93 26.4049 167.73 27.1242 167.38 27.7408C167.041 28.3575 166.539 28.835 165.874 29.1736C165.221 29.5121 164.411 29.6814 163.444 29.6814ZM163.444 27.8859C164.085 27.8859 164.581 27.6864 164.931 27.2875C165.282 26.8764 165.475 26.2779 165.512 25.492C165.524 25.3107 165.53 25.0749 165.53 24.7847C165.53 24.4946 165.524 24.2588 165.512 24.0775C165.475 23.3037 165.282 22.7112 164.931 22.3002C164.581 21.8891 164.085 21.6836 163.444 21.6836C162.803 21.6836 162.308 21.8891 161.957 22.3002C161.606 22.7112 161.413 23.3037 161.377 24.0775C161.365 24.2588 161.359 24.4946 161.359 24.7847C161.359 25.0749 161.365 25.3107 161.377 25.492C161.413 26.2779 161.606 26.8764 161.957 27.2875C162.308 27.6864 162.803 27.8859 163.444 27.8859ZM170.441 29.5C170.32 29.5 170.217 29.4577 170.133 29.3731C170.048 29.2884 170.006 29.1856 170.006 29.0647V20.5047C170.006 20.3838 170.048 20.2811 170.133 20.1964C170.217 20.1118 170.32 20.0695 170.441 20.0695H171.928C172.049 20.0695 172.152 20.1118 172.236 20.1964C172.321 20.2811 172.363 20.3838 172.363 20.5047V21.2483C172.678 20.8614 173.077 20.541 173.56 20.2871C174.056 20.0211 174.666 19.8881 175.392 19.8881C176.129 19.8881 176.77 20.0574 177.314 20.3959C177.858 20.7224 178.275 21.1879 178.566 21.7924C178.868 22.3969 179.019 23.1223 179.019 23.9686V29.0647C179.019 29.1856 178.977 29.2884 178.892 29.3731C178.807 29.4577 178.705 29.5 178.584 29.5H176.988C176.867 29.5 176.764 29.4577 176.679 29.3731C176.595 29.2884 176.553 29.1856 176.553 29.0647V24.0775C176.553 23.3762 176.377 22.8261 176.027 22.4271C175.688 22.0281 175.192 21.8286 174.539 21.8286C173.911 21.8286 173.409 22.0281 173.034 22.4271C172.659 22.8261 172.472 23.3762 172.472 24.0775V29.0647C172.472 29.1856 172.43 29.2884 172.345 29.3731C172.26 29.4577 172.158 29.5 172.037 29.5H170.441ZM189.357 29.5C188.631 29.5 188.021 29.3731 187.525 29.1192C187.029 28.8653 186.661 28.4905 186.419 27.9947C186.177 27.4869 186.056 26.8582 186.056 26.1086V21.9919H184.623C184.503 21.9919 184.4 21.9496 184.315 21.8649C184.231 21.7803 184.188 21.6775 184.188 21.5566V20.5047C184.188 20.3838 184.231 20.2811 184.315 20.1964C184.4 20.1118 184.503 20.0695 184.623 20.0695H186.056V17.059C186.056 16.9381 186.092 16.8353 186.165 16.7507C186.25 16.666 186.358 16.6237 186.491 16.6237H187.96C188.081 16.6237 188.184 16.666 188.269 16.7507C188.353 16.8353 188.396 16.9381 188.396 17.059V20.0695H190.663C190.783 20.0695 190.886 20.1118 190.971 20.1964C191.056 20.2811 191.098 20.3838 191.098 20.5047V21.5566C191.098 21.6775 191.056 21.7803 190.971 21.8649C190.886 21.9496 190.783 21.9919 190.663 21.9919H188.396V25.9273C188.396 26.423 188.48 26.8099 188.65 27.088C188.831 27.366 189.139 27.5051 189.574 27.5051H190.826C190.947 27.5051 191.049 27.5474 191.134 27.632C191.219 27.7167 191.261 27.8194 191.261 27.9403V29.0647C191.261 29.1856 191.219 29.2884 191.134 29.3731C191.049 29.4577 190.947 29.5 190.826 29.5H189.357ZM193.323 29.5C193.202 29.5 193.1 29.4577 193.015 29.3731C192.93 29.2884 192.888 29.1856 192.888 29.0647V17.059C192.888 16.9381 192.93 16.8353 193.015 16.7507C193.1 16.666 193.202 16.6237 193.323 16.6237H194.937C195.07 16.6237 195.173 16.666 195.246 16.7507C195.33 16.8353 195.373 16.9381 195.373 17.059V21.1939C195.699 20.807 196.098 20.4927 196.57 20.2509C197.041 20.009 197.621 19.8881 198.311 19.8881C199.048 19.8881 199.689 20.0574 200.233 20.3959C200.789 20.7224 201.218 21.1879 201.521 21.7924C201.823 22.3969 201.974 23.1223 201.974 23.9686V29.0647C201.974 29.1856 201.932 29.2884 201.847 29.3731C201.762 29.4577 201.66 29.5 201.539 29.5H199.906C199.786 29.5 199.683 29.4577 199.598 29.3731C199.514 29.2884 199.471 29.1856 199.471 29.0647V24.0775C199.471 23.3762 199.296 22.8261 198.945 22.4271C198.607 22.0281 198.111 21.8286 197.458 21.8286C196.829 21.8286 196.322 22.0281 195.935 22.4271C195.56 22.8261 195.373 23.3762 195.373 24.0775V29.0647C195.373 29.1856 195.33 29.2884 195.246 29.3731C195.173 29.4577 195.07 29.5 194.937 29.5H193.323ZM208.338 29.6814C206.996 29.6814 205.932 29.2945 205.146 28.5207C204.36 27.7469 203.937 26.6467 203.876 25.22C203.864 25.0991 203.858 24.948 203.858 24.7666C203.858 24.5732 203.864 24.422 203.876 24.3132C203.925 23.4064 204.13 22.6206 204.493 21.9556C204.868 21.2906 205.382 20.7828 206.035 20.4322C206.688 20.0695 207.455 19.8881 208.338 19.8881C209.317 19.8881 210.139 20.0937 210.804 20.5047C211.469 20.9037 211.971 21.4659 212.31 22.1914C212.648 22.9047 212.817 23.7329 212.817 24.6759V25.0568C212.817 25.1777 212.775 25.2805 212.69 25.3651C212.606 25.4497 212.497 25.492 212.364 25.492H206.343C206.343 25.492 206.343 25.5102 206.343 25.5464C206.343 25.5827 206.343 25.6129 206.343 25.6371C206.355 26.0603 206.434 26.4532 206.579 26.8159C206.736 27.1666 206.96 27.4507 207.25 27.6683C207.552 27.8859 207.909 27.9947 208.32 27.9947C208.658 27.9947 208.942 27.9464 209.172 27.8497C209.402 27.7408 209.589 27.6199 209.734 27.4869C209.879 27.354 209.982 27.2451 210.043 27.1605C210.151 27.0154 210.236 26.9308 210.296 26.9066C210.369 26.8703 210.472 26.8522 210.605 26.8522H212.164C212.285 26.8522 212.382 26.8885 212.455 26.961C212.539 27.0336 212.576 27.1242 212.563 27.2331C212.551 27.4265 212.449 27.6623 212.255 27.9403C212.074 28.2184 211.808 28.4905 211.457 28.7564C211.107 29.0224 210.665 29.2461 210.133 29.4275C209.613 29.5967 209.015 29.6814 208.338 29.6814ZM206.343 23.9686H210.351V23.9142C210.351 23.4427 210.272 23.0316 210.115 22.681C209.958 22.3304 209.728 22.0523 209.426 21.8468C209.124 21.6412 208.761 21.5385 208.338 21.5385C207.915 21.5385 207.552 21.6412 207.25 21.8468C206.947 22.0523 206.718 22.3304 206.561 22.681C206.415 23.0316 206.343 23.4427 206.343 23.9142V23.9686Z" fill="black"/>
<path d="M68.8497 64C68.6447 64 68.4525 63.9231 68.2731 63.7694C68.1194 63.6156 68.0425 63.4234 68.0425 63.1928C68.0425 63.0903 68.0681 62.975 68.1194 62.8469L77.3827 38.055C77.4596 37.7987 77.6005 37.5809 77.8055 37.4015C78.0362 37.1965 78.3437 37.094 78.728 37.094H82.9177C83.302 37.094 83.5967 37.1965 83.8017 37.4015C84.0067 37.5809 84.1605 37.7987 84.263 38.055L93.5263 62.8469C93.5519 62.975 93.5647 63.0903 93.5647 63.1928C93.5647 63.4234 93.4879 63.6156 93.3341 63.7694C93.1804 63.9231 93.001 64 92.796 64H89.452C89.0932 64 88.8242 63.9231 88.6448 63.7694C88.491 63.59 88.3885 63.4234 88.3373 63.2697L86.5308 58.5804H75.1149L73.3084 63.2697C73.2571 63.4234 73.1418 63.59 72.9625 63.7694C72.8087 63.9231 72.5525 64 72.1937 64H68.8497ZM76.4602 54.1601H85.1855L80.8036 42.283L76.4602 54.1601ZM94.9623 71.303C94.706 71.303 94.4882 71.2134 94.3089 71.034C94.1295 70.8546 94.0398 70.6368 94.0398 70.3806V44.9352C94.0398 44.679 94.1295 44.4611 94.3089 44.2818C94.4882 44.1024 94.706 44.0127 94.9623 44.0127H97.9988C98.2807 44.0127 98.4985 44.1024 98.6523 44.2818C98.8316 44.4611 98.9213 44.679 98.9213 44.9352V46.4727C99.5363 45.6527 100.343 44.9736 101.343 44.4355C102.342 43.8974 103.585 43.6283 105.071 43.6283C106.429 43.6283 107.608 43.8462 108.607 44.2818C109.607 44.7174 110.44 45.3452 111.106 46.1652C111.772 46.9596 112.285 47.9077 112.643 49.0095C113.002 50.1114 113.207 51.3286 113.258 52.6611C113.284 53.0967 113.297 53.5451 113.297 54.0064C113.297 54.4676 113.284 54.9288 113.258 55.3901C113.233 56.6713 113.041 57.8629 112.682 58.9647C112.323 60.041 111.798 60.9891 111.106 61.8091C110.44 62.6035 109.607 63.2313 108.607 63.6925C107.608 64.1537 106.429 64.3844 105.071 64.3844C103.688 64.3844 102.509 64.1409 101.535 63.6541C100.561 63.1416 99.7669 62.4753 99.1519 61.6553V70.3806C99.1519 70.6368 99.0622 70.8546 98.8829 71.034C98.7291 71.2134 98.5113 71.303 98.2294 71.303H94.9623ZM103.649 60.2716C104.751 60.2716 105.609 60.041 106.224 59.5797C106.839 59.0929 107.275 58.4651 107.531 57.6963C107.813 56.9276 107.98 56.082 108.031 55.1595C108.082 54.3907 108.082 53.622 108.031 52.8532C107.98 51.9308 107.813 51.0851 107.531 50.3164C107.275 49.5477 106.839 48.9327 106.224 48.4714C105.609 47.9845 104.751 47.7411 103.649 47.7411C102.598 47.7411 101.74 47.9845 101.074 48.4714C100.433 48.9583 99.9591 49.5861 99.6516 50.3548C99.3697 51.0979 99.2032 51.8667 99.1519 52.6611C99.1263 53.1223 99.1135 53.6092 99.1135 54.1217C99.1135 54.6342 99.1263 55.1338 99.1519 55.6207C99.1776 56.3895 99.3569 57.1326 99.6901 57.8501C100.023 58.5419 100.51 59.1185 101.151 59.5797C101.791 60.041 102.624 60.2716 103.649 60.2716ZM115.882 71.303C115.626 71.303 115.408 71.2134 115.229 71.034C115.049 70.8546 114.959 70.6368 114.959 70.3806V44.9352C114.959 44.679 115.049 44.4611 115.229 44.2818C115.408 44.1024 115.626 44.0127 115.882 44.0127H118.919C119.2 44.0127 119.418 44.1024 119.572 44.2818C119.751 44.4611 119.841 44.679 119.841 44.9352V46.4727C120.456 45.6527 121.263 44.9736 122.263 44.4355C123.262 43.8974 124.505 43.6283 125.991 43.6283C127.349 43.6283 128.528 43.8462 129.527 44.2818C130.527 44.7174 131.359 45.3452 132.026 46.1652C132.692 46.9596 133.204 47.9077 133.563 49.0095C133.922 50.1114 134.127 51.3286 134.178 52.6611C134.204 53.0967 134.216 53.5451 134.216 54.0064C134.216 54.4676 134.204 54.9288 134.178 55.3901C134.152 56.6713 133.96 57.8629 133.601 58.9647C133.243 60.041 132.717 60.9891 132.026 61.8091C131.359 62.6035 130.527 63.2313 129.527 63.6925C128.528 64.1537 127.349 64.3844 125.991 64.3844C124.607 64.3844 123.428 64.1409 122.455 63.6541C121.481 63.1416 120.687 62.4753 120.072 61.6553V70.3806C120.072 70.6368 119.982 70.8546 119.803 71.034C119.649 71.2134 119.431 71.303 119.149 71.303H115.882ZM124.569 60.2716C125.671 60.2716 126.529 60.041 127.144 59.5797C127.759 59.0929 128.195 58.4651 128.451 57.6963C128.733 56.9276 128.899 56.082 128.951 55.1595C129.002 54.3907 129.002 53.622 128.951 52.8532C128.899 51.9308 128.733 51.0851 128.451 50.3164C128.195 49.5477 127.759 48.9327 127.144 48.4714C126.529 47.9845 125.671 47.7411 124.569 47.7411C123.518 47.7411 122.66 47.9845 121.993 48.4714C121.353 48.9583 120.879 49.5861 120.571 50.3548C120.289 51.0979 120.123 51.8667 120.072 52.6611C120.046 53.1223 120.033 53.6092 120.033 54.1217C120.033 54.6342 120.046 55.1338 120.072 55.6207C120.097 56.3895 120.277 57.1326 120.61 57.8501C120.943 58.5419 121.43 59.1185 122.07 59.5797C122.711 60.041 123.544 60.2716 124.569 60.2716ZM151.735 64.3844C149.352 64.3844 147.353 64.0384 145.739 63.3466C144.15 62.6291 142.933 61.7066 142.087 60.5791C141.267 59.426 140.832 58.2216 140.781 56.966C140.781 56.7354 140.857 56.5432 141.011 56.3895C141.165 56.2357 141.357 56.1588 141.588 56.1588H145.009C145.342 56.1588 145.585 56.2357 145.739 56.3895C145.918 56.5176 146.072 56.6841 146.2 56.8891C146.354 57.376 146.649 57.8629 147.084 58.3497C147.52 58.811 148.109 59.1954 148.852 59.5029C149.621 59.8104 150.582 59.9641 151.735 59.9641C153.58 59.9641 154.951 59.6566 155.848 59.0416C156.77 58.4266 157.232 57.5938 157.232 56.5432C157.232 55.8001 156.988 55.2107 156.501 54.7751C156.014 54.3139 155.258 53.9039 154.233 53.5451C153.234 53.1607 151.902 52.7636 150.236 52.3536C148.314 51.8923 146.7 51.3414 145.393 50.7008C144.112 50.0345 143.138 49.2017 142.472 48.2024C141.831 47.203 141.511 45.9346 141.511 44.3971C141.511 42.9108 141.908 41.5912 142.702 40.4381C143.522 39.2849 144.675 38.3753 146.162 37.709C147.674 37.0428 149.467 36.7097 151.543 36.7097C153.209 36.7097 154.682 36.9403 155.963 37.4015C157.244 37.8372 158.308 38.4265 159.153 39.1696C159.999 39.8871 160.64 40.6687 161.075 41.5143C161.537 42.3343 161.78 43.1415 161.806 43.9358C161.806 44.1408 161.729 44.333 161.575 44.5124C161.447 44.6661 161.255 44.743 160.998 44.743H157.424C157.219 44.743 157.014 44.6918 156.809 44.5893C156.604 44.4868 156.437 44.2946 156.309 44.0127C156.155 43.2183 155.656 42.5393 154.81 41.9755C153.964 41.4118 152.875 41.1299 151.543 41.1299C150.159 41.1299 149.044 41.3862 148.199 41.8987C147.353 42.4112 146.93 43.2055 146.93 44.2818C146.93 44.9993 147.135 45.6014 147.545 46.0883C147.981 46.5496 148.66 46.9596 149.583 47.3183C150.531 47.677 151.774 48.0614 153.311 48.4714C155.489 48.9583 157.27 49.522 158.654 50.1626C160.037 50.8033 161.05 51.6233 161.69 52.6226C162.331 53.5964 162.651 54.8392 162.651 56.351C162.651 58.0423 162.19 59.49 161.267 60.6944C160.371 61.8731 159.102 62.7828 157.462 63.4234C155.822 64.0641 153.913 64.3844 151.735 64.3844ZM172.937 64C171.4 64 170.106 63.7309 169.055 63.1928C168.004 62.6547 167.223 61.8603 166.71 60.8097C166.198 59.7335 165.941 58.401 165.941 56.8123V48.087H162.905C162.649 48.087 162.431 47.9974 162.252 47.818C162.072 47.6386 161.982 47.4208 161.982 47.1646V44.9352C161.982 44.679 162.072 44.4611 162.252 44.2818C162.431 44.1024 162.649 44.0127 162.905 44.0127H165.941V37.6322C165.941 37.3759 166.018 37.1581 166.172 36.9787C166.351 36.7994 166.582 36.7097 166.864 36.7097H169.977C170.234 36.7097 170.451 36.7994 170.631 36.9787C170.81 37.1581 170.9 37.3759 170.9 37.6322V44.0127H175.705C175.961 44.0127 176.179 44.1024 176.358 44.2818C176.537 44.4611 176.627 44.679 176.627 44.9352V47.1646C176.627 47.4208 176.537 47.6386 176.358 47.818C176.179 47.9974 175.961 48.087 175.705 48.087H170.9V56.4279C170.9 57.4785 171.079 58.2985 171.438 58.8879C171.822 59.4772 172.476 59.7719 173.398 59.7719H176.05C176.307 59.7719 176.525 59.8616 176.704 60.041C176.883 60.2204 176.973 60.4382 176.973 60.6944V63.0775C176.973 63.3338 176.883 63.5516 176.704 63.7309C176.525 63.9103 176.307 64 176.05 64H172.937ZM186.533 64.3844C184.483 64.3844 182.753 64.0256 181.344 63.3081C179.96 62.5906 178.896 61.5785 178.153 60.2716C177.436 58.9647 177.026 57.4401 176.923 55.6976C176.898 55.2363 176.885 54.6726 176.885 54.0064C176.885 53.3401 176.898 52.7764 176.923 52.3151C177.026 50.547 177.449 49.0223 178.192 47.7411C178.961 46.4342 180.037 45.4221 181.421 44.7046C182.83 43.9871 184.534 43.6283 186.533 43.6283C188.531 43.6283 190.223 43.9871 191.606 44.7046C193.016 45.4221 194.092 46.4342 194.835 47.7411C195.604 49.0223 196.039 50.547 196.142 52.3151C196.168 52.7764 196.18 53.3401 196.18 54.0064C196.18 54.6726 196.168 55.2363 196.142 55.6976C196.039 57.4401 195.617 58.9647 194.874 60.2716C194.156 61.5785 193.093 62.5906 191.683 63.3081C190.299 64.0256 188.583 64.3844 186.533 64.3844ZM186.533 60.5791C187.891 60.5791 188.941 60.1563 189.685 59.3107C190.428 58.4394 190.838 57.171 190.914 55.5054C190.94 55.121 190.953 54.6213 190.953 54.0064C190.953 53.3914 190.94 52.8917 190.914 52.5073C190.838 50.8673 190.428 49.6117 189.685 48.7405C188.941 47.8692 187.891 47.4336 186.533 47.4336C185.175 47.4336 184.124 47.8692 183.381 48.7405C182.638 49.6117 182.228 50.8673 182.151 52.5073C182.125 52.8917 182.112 53.3914 182.112 54.0064C182.112 54.6213 182.125 55.121 182.151 55.5054C182.228 57.171 182.638 58.4394 183.381 59.3107C184.124 60.1563 185.175 60.5791 186.533 60.5791ZM198.671 64C198.415 64 198.197 63.9103 198.018 63.7309C197.838 63.5516 197.748 63.3338 197.748 63.0775V44.9736C197.748 44.6918 197.838 44.4611 198.018 44.2818C198.197 44.1024 198.415 44.0127 198.671 44.0127H201.784C202.041 44.0127 202.258 44.1024 202.438 44.2818C202.643 44.4611 202.745 44.6918 202.745 44.9736V46.5496C203.335 45.7296 204.091 45.1018 205.013 44.6661C205.961 44.2305 207.05 44.0127 208.28 44.0127H209.856C210.138 44.0127 210.356 44.1024 210.51 44.2818C210.689 44.4611 210.779 44.679 210.779 44.9352V47.7027C210.779 47.9589 210.689 48.1767 210.51 48.3561C210.356 48.5355 210.138 48.6252 209.856 48.6252H206.858C205.628 48.6252 204.667 48.9711 203.975 49.663C203.309 50.3548 202.976 51.3029 202.976 52.5073V63.0775C202.976 63.3338 202.886 63.5516 202.707 63.7309C202.527 63.9103 202.297 64 202.015 64H198.671ZM219.433 64.3844C216.589 64.3844 214.334 63.5644 212.668 61.9244C211.002 60.2844 210.106 57.9526 209.977 54.9288C209.952 54.6726 209.939 54.3523 209.939 53.9679C209.939 53.5579 209.952 53.2376 209.977 53.007C210.08 51.0851 210.516 49.4195 211.284 48.0102C212.079 46.6008 213.168 45.5246 214.552 44.7815C215.935 44.0127 217.562 43.6283 219.433 43.6283C221.509 43.6283 223.251 44.064 224.66 44.9352C226.07 45.7808 227.133 46.9724 227.851 48.5099C228.568 50.0217 228.927 51.777 228.927 53.7757V54.5829C228.927 54.8392 228.837 55.057 228.658 55.2363C228.479 55.4157 228.248 55.5054 227.966 55.5054H215.205C215.205 55.5054 215.205 55.5438 215.205 55.6207C215.205 55.6976 215.205 55.7616 215.205 55.8129C215.231 56.7098 215.397 57.5426 215.705 58.3113C216.038 59.0544 216.512 59.6566 217.127 60.1179C217.767 60.5791 218.523 60.8097 219.395 60.8097C220.112 60.8097 220.714 60.7072 221.201 60.5022C221.688 60.2716 222.085 60.0154 222.393 59.7335C222.7 59.4516 222.918 59.221 223.046 59.0416C223.277 58.7341 223.456 58.5547 223.584 58.5035C223.738 58.4266 223.956 58.3882 224.238 58.3882H227.543C227.799 58.3882 228.004 58.4651 228.158 58.6188C228.338 58.7726 228.414 58.9647 228.389 59.1954C228.363 59.6054 228.145 60.105 227.735 60.6944C227.351 61.2838 226.787 61.8603 226.044 62.4241C225.301 62.9878 224.366 63.4619 223.238 63.8463C222.136 64.205 220.868 64.3844 219.433 64.3844ZM215.205 52.2767H223.7V52.1614C223.7 51.162 223.533 50.2908 223.2 49.5477C222.867 48.8045 222.38 48.2152 221.739 47.7795C221.099 47.3439 220.33 47.1261 219.433 47.1261C218.536 47.1261 217.767 47.3439 217.127 47.7795C216.486 48.2152 215.999 48.8045 215.666 49.5477C215.359 50.2908 215.205 51.162 215.205 52.1614V52.2767Z" fill="black"/>
</svg>
